<svg height="512" viewBox="0 0 64 64" width="512" xmlns="http://www.w3.org/2000/svg"><path d="m42 36h-3v-3a1 1 0 0 0 -1.243-.97l-1.757.44v-26.47a4 4 0 0 0 -8 0v28.47l-2.243.56a1 1 0 0 0 -.757.97v8h-1a1 1 0 0 0 -1 1v4a1 1 0 0 0 1 1h3v9a3 3 0 0 0 3 3h4a3 3 0 0 0 3-3v-9h3a1 1 0 0 0 1-1v-4a1 1 0 0 0 -1-1h-1v-2h3a1 1 0 0 0 1-1v-4a1 1 0 0 0 -1-1zm-12-30a2 2 0 0 1 4 0v26.969l-4 1zm-2 42h-3v-2h3zm7 11a1 1 0 0 1 -1 1h-4a1 1 0 0 1 -1-1v-1h4v-2h-4v-2h2v-2h-2v-2h6zm-5-11v-2h4v2zm-3-4v-7.219l10-2.5v9.719zm12 4h-3v-2h3zm2-8h-2v-2h2z"/><path d="m32 36a3 3 0 1 0 3 3 3 3 0 0 0 -3-3zm0 4a1 1 0 1 1 1-1 1 1 0 0 1 -1 1z"/><path d="m18 17h8v2h-8z"/><path d="m21.5 7.692h2v7.616h-2z" transform="matrix(.394 -.919 .919 .394 3.064 27.647)"/><path d="m18.692 23.5h7.616v2h-7.616z" transform="matrix(.919 -.394 .394 .919 -7.832 10.844)"/><path d="m38 17h8v2h-8z"/><path d="m37.692 10.5h7.616v2h-7.616z" transform="matrix(.919 -.394 .394 .919 -1.173 17.286)"/><path d="m40.5 20.692h2v7.616h-2z" transform="matrix(.394 -.919 .919 .394 2.633 52.993)"/></svg>